<svg xmlns="http://www.w3.org/2000/svg" width="30" height="30" viewBox="0 0 30 30">
  <defs>
    <style>
      .cls-1 {
        fill: #82699d;
        fill-rule: evenodd;
      }
    </style>
  </defs>
  <path class="cls-1" d="M1144,1408a15,15,0,1,0,15,15A15.005,15.005,0,0,0,1144,1408Zm7.56,11.98c0,0.16.01,0.32,0.01,0.49a10.749,10.749,0,0,1-16.55,9.05,6.6,6.6,0,0,0,.9.05,7.582,7.582,0,0,0,4.69-1.61,3.792,3.792,0,0,1-3.53-2.63,3.353,3.353,0,0,0,.71.07,4.089,4.089,0,0,0,1-.13,3.787,3.787,0,0,1-3.03-3.71v-0.05a3.683,3.683,0,0,0,1.71.48,3.8,3.8,0,0,1-1.68-3.15,3.726,3.726,0,0,1,.51-1.9,10.722,10.722,0,0,0,7.79,3.95,4.124,4.124,0,0,1-.1-0.86,3.785,3.785,0,0,1,6.54-2.59,7.429,7.429,0,0,0,2.4-.92,3.727,3.727,0,0,1-1.66,2.09,7.406,7.406,0,0,0,2.17-.59A7.615,7.615,0,0,1,1151.56,1419.98Z" transform="translate(-1129 -1408)"/>
</svg>
